<?xml version="1.0" encoding="UTF-8"?>
<svg width="40px" height="48px" viewBox="0 0 40 48" version="1.1" xmlns="http://www.w3.org/2000/svg" xmlns:xlink="http://www.w3.org/1999/xlink">
    <!-- Generator: Sketch 51 (57462) - http://www.bohemiancoding.com/sketch -->
    <title>coin-1</title>
    <desc>Created with Sketch.</desc>
    <defs></defs>
    <g id="Page-1" stroke="none" stroke-width="1" fill="none" fill-rule="evenodd">
        <g id="Desktop" transform="translate(-916.000000, -342.000000)" fill-rule="nonzero">
            <g id="coin-1" transform="translate(916.000000, 341.000000)">
                <path d="M17.1,6.65 C26.51,12.08 34.1,25.26 34.1,36.08 C34.1,46.9 26.41,51.26 17,45.82 C7.59,40.38 0,27.21 0,16.39 C0,5.57 7.69,1.21 17.1,6.65 Z" id="Shape" fill="#B3B3B3"></path>
                <path d="M22.8,3.34 C18.06,0.6 13.8,0.34 10.67,2.15 L5,5.46 C8.1,3.66 12.39,3.91 17.13,6.65 C26.54,12.09 34.13,25.26 34.13,36.08 C34.13,41.45 32.22,45.23 29.13,47.01 L34.82,43.7 C37.88,41.92 39.82,38.14 39.82,32.77 C39.82,22 32.21,8.77 22.8,3.34 Z" id="Shape" fill="#999999"></path>
                <path d="M15.79,41 C19.21,43 22.32,43.16 24.55,41.86 L28.66,39.47 C26.42,40.77 23.32,40.59 19.9,38.61 C13.1,34.73 7.61,25.21 7.63,17.39 C7.63,13.51 9.01,10.78 11.22,9.49 L7.11,11.89 C4.9,13.17 3.53,15.89 3.52,19.79 C3.49,27.6 9,37.12 15.79,41 Z" id="Shape" fill="#F49625"></path>
                <path d="M17.75,40.27 C11,36.34 5.45,26.82 5.47,19 C5.49,11.18 11,8 17.83,12 C24.66,16 30.13,25.45 30.11,33.26 C30.09,41.07 24.56,44.2 17.75,40.27 Z" id="Shape" fill="#F8B03C"></path>
            </g>
        </g>
    </g>
</svg>