<svg xmlns="http://www.w3.org/2000/svg" viewBox="0 0 39.79 47.16"><defs><style>.cls-1{fill:#b3b3b3;}.cls-2{fill:#999;}</style></defs><title>Fichier 4</title><g id="Calque_2" data-name="Calque 2"><g id="Layer_1" data-name="Layer 1"><path class="cls-1" d="M17.1,5.65c9.41,5.43,17,18.61,17,29.43S26.41,50.26,17,44.82,0,26.21,0,15.39,7.69.21,17.1,5.65Z"/><path class="cls-2" d="M22.8,2.34c-4.74-2.74-9-3-12.13-1.19L5,4.46c3.1-1.8,7.39-1.55,12.13,1.19,9.41,5.44,17,18.61,17,29.43,0,5.37-1.91,9.15-5,10.93l5.69-3.31c3.06-1.78,5-5.56,5-10.93C39.82,21,32.21,7.77,22.8,2.34Z"/><path class="cls-2" d="M15.79,40c3.42,2,6.53,2.16,8.76.86l4.11-2.39c-2.24,1.3-5.34,1.12-8.76-.86C13.1,33.73,7.61,24.21,7.63,16.39c0-3.88,1.38-6.61,3.59-7.9L7.11,10.89c-2.21,1.28-3.58,4-3.59,7.9C3.49,26.6,9,36.12,15.79,40Z"/><path class="cls-1" d="M17.75,39.27C11,35.34,5.45,25.82,5.47,18S11,7,17.83,11s12.3,13.45,12.28,21.26S24.56,43.2,17.75,39.27Z"/></g></g></svg>