<svg xmlns="http://www.w3.org/2000/svg" xmlns:xlink="http://www.w3.org/1999/xlink" viewBox="0 0 973.46 563.59"><defs><style>.cls-1{opacity:0.2;}.cls-2{fill:url(#linear-gradient);}.cls-3{fill:url(#linear-gradient-2);}.cls-4{fill:url(#linear-gradient-3);}.cls-5{fill:url(#linear-gradient-4);}.cls-6{fill:url(#linear-gradient-5);}</style><linearGradient id="linear-gradient" x1="510.1" y1="268.64" x2="601.69" y2="268.64" gradientUnits="userSpaceOnUse"><stop offset="0" stop-color="#db3a68"/><stop offset="1" stop-color="#d60032"/></linearGradient><linearGradient id="linear-gradient-2" x1="418.45" y1="321.9" x2="510.03" y2="321.9" xlink:href="#linear-gradient"/><linearGradient id="linear-gradient-3" x1="0" y1="281.79" x2="835.98" y2="281.79" xlink:href="#linear-gradient"/><linearGradient id="linear-gradient-4" x1="880.04" y1="323.49" x2="973.46" y2="323.49" xlink:href="#linear-gradient"/><linearGradient id="linear-gradient-5" x1="832.52" y1="242.96" x2="925.93" y2="242.96" xlink:href="#linear-gradient"/></defs><title>Fichier 2</title><g id="Calque_2" data-name="Calque 2"><g id="Layer_1" data-name="Layer 1"><g class="cls-1"><polygon class="cls-2" points="556.59 295.16 510.1 268.32 555.2 242.11 601.69 268.95 556.59 295.16"/><polygon class="cls-3" points="464.94 348.42 418.45 321.58 463.54 295.38 510.03 322.22 464.94 348.42"/><path class="cls-4" d="M789.3,376.43,836,403.38,790.15,430l-46.56,27.06-46.68-26.95-45.09,26.2,46.68,26.95-46.56,27.06-46.68-26.95-45.1,26.21,46.68,26.95-46.55,27.05-46.68-26.95-46.86-27.05L512.58,483l45.82-26.63-46.49-26.84-46.67-26.95-45.1,26.21,46.67,26.95-46.55,27.05-46.86-27.05,45.82-26.63-46.49-26.84-45.82,26.63-46.86-27.05,46.55-27.05,46.67,26.95,45.1-26.21L371.7,348.53l45.83-26.63L371,295.06l-45.83,26.63-46.67-26.95L233.44,321l46.67,26.95L233.56,375,186.7,347.9l45.82-26.63L186,294.42l-45.82,26.63L93.35,294l46.55-27.05,46.67,26.95,45.1-26.21-46.49-26.84L138.51,213.9l-45.1,26.21L46.86,267.16,0,240.11l45.82-26.63,46.56-27.06,46.67,26.95,45.1-26.21-46.67-26.95L184,133.16l46.86,27.05-45.82,26.63,46.49,26.84,46.67,26.95,45.09-26.2-46.67-26.95,45.83-26.63,45.83-26.63-46.49-26.84L276,134l-46.86-27.05,46.56-27.06,46.67,26.95,45.1-26.21L320.78,53.69,366.6,27.06,413.17,0l46.67,26.95L505.66.32l46.68,26.95L599,54.21l46.86,27.06L600.05,107.9l46.49,26.84,45.82-26.63L739,135.06l46.86,27.05-45.82,26.63,46.68,26.95-45.83,26.63,46.67,26.95L741,296.32l-46.67-26.95-46.68-26.95-45.1,26.21,46.49,26.84,46.86,27.05-45.83,26.63,46.68,26.95L651,402.74l46.49,26.84,45.1-26.21,45.83-26.63L741.72,349.8l46.55-27.05,46.86,27.05ZM464.09,294.85l45.1-26.21-46.49-26.84-46.86-27.05,45.83-26.63-46.49-26.84-45.1,26.21-.73.42-45.1,26.21,46.68,26.95L325.1,267.69l46.49,26.84,45.82-26.63,46.68,26.95m-3.4-214.32,46.86,27.05-45.83,26.63,46.49,26.84,45.1-26.21.73-.43,45.1-26.21L552.64,81.37,506,54.43,459.29,27.48l-45.1,26.21-.73.43-45.1,26.21,46.49,26.84,45.83-26.63M694.06,215.27l45.1-26.21-46.49-26.84L646,135.27l-45.1,26.21,46.68,26.95-45.83,26.63,46.49,26.84,45.1-26.21.73-.43m-90,160.42,45.1-26.21-46.49-26.84L556,295.69l-45.1,26.21,46.68,26.95L511.8,375.48l46.49,26.84,45.09-26.2.73-.43M555.74,241.58l45.1-26.21-46.49-26.84-46.67-26.95-45.1,26.21,46.49,26.84,46.68,26.95M279.08,294.21,324.18,268l-46.49-26.84-45.1,26.21,46.49,26.84M465.79,402l45.1-26.21L464.39,349l-45.1,26.21L465.79,402M415.71,160.74l45.1-26.21-46.49-26.84-45.1,26.21,46.49,26.84m190.1,322.11,45.1-26.21L604.42,429.8,559.32,456l46.49,26.84"/><polygon class="cls-5" points="973.46 323.48 926.9 350.54 880.04 323.49 926.6 296.43 973.46 323.48"/><polygon class="cls-6" points="925.93 242.96 879.38 270.01 832.52 242.96 879.07 215.9 925.93 242.96"/></g></g></g></svg>