<svg xmlns="http://www.w3.org/2000/svg" xmlns:xlink="http://www.w3.org/1999/xlink" viewBox="0 0 216.24 323.75"><defs><style>.cls-1{opacity:0.4;fill:url(#linear-gradient);}.cls-2{fill:#323843;}.cls-3{fill:#414046;}.cls-4{fill:url(#linear-gradient-2);}.cls-5{fill:#2a6f87;}.cls-6{fill:#342285;}.cls-7{fill:url(#linear-gradient-3);}.cls-8{fill:#745544;}.cls-9{fill:#f2c9a9;}.cls-10{fill:#ffcfa9;}</style><linearGradient id="linear-gradient" x1="2.19" y1="263.35" x2="216.24" y2="263.35" gradientUnits="userSpaceOnUse"><stop offset="0" stop-color="#171232" stop-opacity="0.97"/><stop offset="0.36" stop-color="#19134b" stop-opacity="0.49"/><stop offset="0.73" stop-color="#1a145d" stop-opacity="0.13"/><stop offset="1" stop-color="#1b1464" stop-opacity="0"/></linearGradient><linearGradient id="linear-gradient-2" x1="6.78" y1="85.49" x2="61.53" y2="85.49" gradientUnits="userSpaceOnUse"><stop offset="0" stop-color="#644dcf"/><stop offset="0.41" stop-color="#624bcd"/><stop offset="0.62" stop-color="#5d46c5"/><stop offset="0.78" stop-color="#533eb8"/><stop offset="0.92" stop-color="#4631a5"/><stop offset="1" stop-color="#3b2796"/></linearGradient><linearGradient id="linear-gradient-3" x1="19.58" y1="16.21" x2="52.37" y2="16.21" xlink:href="#linear-gradient-2"/></defs><title>Fichier 3</title><g id="Calque_2" data-name="Calque 2"><g id="Layer_1" data-name="Layer 1"><path class="cls-1" d="M215.74,297.53a13.44,13.44,0,0,0-4-7.42c-2.41-2-49.91-37.91-62.07-43-7.23-3-94.72-43.55-94.92-43.66-2.25-1.15-5.32,1.15-6.28,3.11-.79,1.61-17.25-4.69-15.39-3.42,8.42,5.74,60,42,60,42s2.77,3.31-2.48,3.35c-1,0-2.59-1-3.54-1.34q-2.14-.83-4.27-1.69-5-2-10.05-4.12-11.34-4.73-22.6-9.62-9.64-4.16-19.25-8.39L25,220.72c-.89-.39-1.68-1-2.61-.75a11.4,11.4,0,0,0-3.58,2c-3,2.25-19.92-.08-16,2.08,1.49.82,18.46,9.26,19.93,10.09,4.87,2.75,79,48.65,83.5,51.2l8.1,4.29c11.56,5.48,23.08,10.83,34.89,15.73,4.22,1.38,60.74,21.48,63.73,18s1.93-10.76,1.93-10.76a6.26,6.26,0,0,0-.22-1.39,9.38,9.38,0,0,0,.93-2.09,17.05,17.05,0,0,0,.48-3.19c.11-1,.17-2.08.18-3.13A23.4,23.4,0,0,0,215.74,297.53Z"/><path class="cls-2" d="M43.19,195.15c.15,0-.23,1.32-.27,1.46a2.31,2.31,0,0,1-1.37,1.49,5.88,5.88,0,0,1-2.19.08,23,23,0,0,0-5.58,0c-1.26.25-2.64.95-2.57,2.43.1,2,3.9,3.81,5.36,4.32a33.49,33.49,0,0,0,14.24,2.2c2.9-.28,3.56-2.22,3.93-4.83.07-.52.41-6.19.29-6.2Z"/><path class="cls-2" d="M13.78,216a2.59,2.59,0,0,0-.6.56c-2.4,2.64-6.26,1.59-9.36,1.41a5.77,5.77,0,0,0-1.77.07,2.81,2.81,0,0,0-2,2.3c-.13,1.6,1.58,3.06,2.77,3.66a43.84,43.84,0,0,0,14.06,4.33,10.22,10.22,0,0,0,5.62-.73,6.73,6.73,0,0,0,3.62-5,13.51,13.51,0,0,0,.19-3.27c0-.62,0-2.88-.63-3.15a1,1,0,0,0-.35-.05L19.34,216,16.47,216a7.18,7.18,0,0,0-2.59,0Z"/><path class="cls-3" d="M56.07,125.9l-1,70.21c0,2.53-3.51,4.16-5.69,4.09-1.79-.06-5.69-1-5.93-3.22-1.13-10.13-7.25-54.25-7.25-54.25s-1.62-4-4.12.62c-.48.9-.36,2.74-.48,3.76q-.27,2.28-.51,4.57c-.38,3.6-.73,7.21-1.07,10.81-.76,8.15-1.44,16.32-2.09,24.48Q27,197.43,26.27,207.9q-.24,3.19-.47,6.38c-.07,1,.08,1.95-.56,2.65a11.4,11.4,0,0,1-3.44,2.23c-3.38,1.57-8.72.39-8.79-4.09,0-1.7-.07-3.39-.11-5.09q-.22-8.38-.5-16.76-.34-10.77-.7-21.53T11,150.21q-.29-8.31-.58-16.63-.12-3.48-.24-7l44.63-11.12H57s-.58,5.88-.71,7Z"/><path class="cls-4" d="M25.08,41A64,64,0,0,0,11.89,55.86c-2.12,3.47-1.92,4.64-2.67,9C8,77.6,7.35,90.29,6.78,103.07v9.17c.18,7.3.43,17.85,8.84,20,12.37,3.14,26.45.79,36-7.71,8.57-7.65,8.38-21.93,9.33-32.72,1.16-13.15,1-26.83-3.34-39.44-2.39-7-7.16-12.88-14.71-14.32-5.76-1.1-13.11-1-17.79,2.93"/><path class="cls-5" d="M13.56,115.48"/><path class="cls-6" d="M33.61,3.48S27.69-.85,23.19.15s-6.92,3.42-6.33,9.08c1.92,3.75,3.6,6.55,3.6,6.55L32.61,10.4l3.33-2.83S36.59,5.26,33.61,3.48Z"/><path class="cls-7" d="M33.87,4.4q-.46.06-.92.17a18.7,18.7,0,0,0-5.08,2.16,19.91,19.91,0,0,0-6.66,5.73,15.74,15.74,0,0,0-1.6,2.86c-.55,4.13,4.52,6.84,7.6,8.26a51.31,51.31,0,0,0,15.53,4.18C45,28,50.66,29,51.56,26.06A18.86,18.86,0,0,0,52,16.79a13.44,13.44,0,0,0-4.67-7,23.4,23.4,0,0,0-4.4-2.9C42,6.37,41,5.94,40.06,5.55a17,17,0,0,0-3-1.07A9.63,9.63,0,0,0,33.87,4.4Z"/><path class="cls-8" d="M23.3,18.82c4.08,2.35,8.11,5,12.55,6.59a33.54,33.54,0,0,0,13.4,2c.36,0,1-.22,1.25.06s0,1-.07,1.19a15.08,15.08,0,0,1-.63,2.31,11.7,11.7,0,0,1-2.64,4.18c-6.09,6.46-19.76,6.15-24.43-2C20.2,28.72,21.44,23.24,23.3,18.82Z"/><path class="cls-9" d="M23.3,18.82c-.06,1.61,0,3.25-.21,4.84C22,32.12,29.33,37.21,37.3,39.56a5.61,5.61,0,0,0-1.06.32c-.88.2-1.78.37-2.68.52a44.88,44.88,0,0,1-5.77.8,20.17,20.17,0,0,1-2.47,0,.26.26,0,0,1-.2-.09.28.28,0,0,1,0-.12,4.38,4.38,0,0,1,0-.65,3.38,3.38,0,0,0,0-.83A8.67,8.67,0,0,0,24.52,38a16.86,16.86,0,0,0-1.74-2.88,28.32,28.32,0,0,1-3.57-5.48c-2-4.81-2.35-10,.57-14.53Z"/><path class="cls-6" d="M14.92,86.17c-.42-1.74-.92-3.47-1.21-5.25a103.62,103.62,0,0,1-.77-18.28C13,57.85,15.3,52.46,21,54c3.6,1,7.29,2.73,8.1,6.11,1.41,5.93,1.45,12,2.41,18,.92,5.72-.79,13-2.3,18.67-1.68,6.32-5.61,11.76-9.45,17.05l-4.23,5.83a35.58,35.58,0,0,1-2.18,3c-2.19,2.44-5.44-.84-5.62-2-.22-1.44,2.52-6.29,3.07-7.58a60.84,60.84,0,0,0,4.43-14.17,34,34,0,0,0,.29-9.25A27.74,27.74,0,0,0,14.92,86.17Z"/><path class="cls-10" d="M10.2,114.32a21.76,21.76,0,0,0-3.2.42,5.94,5.94,0,0,0-2,.64,3.1,3.1,0,0,0-1,1.1c-.18.32-.28,1-.43,1.35-.81,2-.2,4.79.22,6.34a4.66,4.66,0,0,0,4.1,3.07,4.55,4.55,0,0,0,2.14-.76c1.7-1,2.09-2.35,3.39-3.83.71-.8,2.94-2.2,2.31-3.32a2.38,2.38,0,0,0-.78-.72A21.81,21.81,0,0,1,12,116.18C11.8,116,10.52,114.3,10.2,114.32Z"/></g></g></svg>