<svg xmlns="http://www.w3.org/2000/svg" viewBox="0 0 58.71 115.44"><defs><style>.cls-1{fill:#e6e6e6;}.cls-2{fill:#ccc;}.cls-3{fill:#736357;}.cls-4{fill:#662d91;}.cls-5{fill:#f15a24;}.cls-6{fill:#fff;}.cls-7{fill:#ff5a5f;}</style></defs><title>Fichier 1</title><g id="Calque_2" data-name="Calque 2"><g id="Layer_1" data-name="Layer 1"><path class="cls-1" d="M58.44,2.15c0-1-3-2.57-3.93-2L1.64,30.63A3.62,3.62,0,0,0,0,33.47L.22,112.8c0,1,2.74,3.07,3.64,2.55L54.74,83.21a3.63,3.63,0,0,0,1.65-2.84Z"/><polygon class="cls-2" points="10.42 101.26 10.43 105.63 7.75 107.17 7.74 102.8 10.42 101.26"/><polygon class="cls-2" points="14.21 99.07 14.22 103.44 11.54 104.98 11.53 100.62 14.21 99.07"/><polygon class="cls-2" points="17.98 96.89 17.99 101.26 15.33 102.8 15.31 98.43 17.98 96.89"/><path class="cls-3" d="M44.41,55.26c.8-.46,1.44-.08,1.44.82a3.13,3.13,0,0,1-1.43,2.46c-.78.45-1.42.09-1.42-.81A3.15,3.15,0,0,1,44.41,55.26Z"/><path class="cls-4" d="M48.18,53.08c.78-.45,1.44-.08,1.44.82a3.15,3.15,0,0,1-1.43,2.46c-.78.45-1.42.09-1.42-.81A3.15,3.15,0,0,1,48.18,53.08Z"/><path class="cls-5" d="M52,50.9c.78-.45,1.44-.08,1.44.82A3.15,3.15,0,0,1,52,54.18c-.78.45-1.42.09-1.42-.81A3.15,3.15,0,0,1,52,50.9Z"/><polygon class="cls-2" points="50.01 60.89 50.02 63.09 7.7 87.52 7.69 85.33 50.01 60.89"/><polygon class="cls-2" points="31.5 62.71 31.51 67.08 7.68 80.84 7.67 76.47 31.5 62.71"/><path class="cls-6" d="M56.83,1.56c.92-.53,1.66-.11,1.66.93l.22,79.33a3.63,3.63,0,0,1-1.65,2.84L4.19,115.19c-.9.52-1.64.1-1.65-.94L2.32,34.92A3.62,3.62,0,0,1,4,32.08Zm.47,39.54L57.19,3.78c0-.48-.34-.67-.76-.43L4.37,33.41a1.67,1.67,0,0,0-.75,1.3L3.73,72c0,.48.34.67.76.43L56.54,42.4a1.67,1.67,0,0,0,.75-1.3M7.68,80.84,31.51,67.08V62.71L7.67,76.47v4.37m45.77-11V67.67L7.72,94.07v2.19l45.73-26.4m-3.43-9L7.69,85.33v2.19L50,63.09V60.89M40.17,70.95,7.7,89.7v2.19L40.18,73.14V70.95M53.48,80V77.15L42,83.76v2.87L53.48,80M21.78,99.07V94.71l-2.68,1.55v4.37l2.68-1.55m-7.56,4.36V99.07l-2.68,1.55V105l2.68-1.55m-3.79,2.19v-4.37L7.74,102.8v4.37l2.68-1.55M18,101.26V96.89l-2.66,1.54v4.37L18,101.26M43,57.73c0,.9.64,1.26,1.42.81a3.13,3.13,0,0,0,1.43-2.46c0-.9-.64-1.28-1.44-.82A3.15,3.15,0,0,0,43,57.73m3.77-2.18c0,.9.64,1.26,1.42.81a3.15,3.15,0,0,0,1.43-2.46c0-.9-.66-1.27-1.44-.82a3.15,3.15,0,0,0-1.42,2.47M52,54.18a3.15,3.15,0,0,0,1.43-2.46c0-.9-.66-1.27-1.44-.82a3.15,3.15,0,0,0-1.42,2.47c0,.9.64,1.26,1.42.81"/><polygon class="cls-7" points="53.47 77.15 42.02 83.76 42.03 86.63 53.48 80.02 53.47 77.15"/><polygon class="cls-2" points="21.76 94.71 21.78 99.08 19.1 100.62 19.09 96.25 21.76 94.71"/><polygon class="cls-2" points="53.44 67.67 53.45 69.86 7.72 96.26 7.71 94.07 53.44 67.67"/><polygon class="cls-2" points="40.17 70.95 40.18 73.14 7.71 91.89 7.7 89.7 40.17 70.95"/><path class="cls-1" d="M56.43,3.35c.41-.24.76,0,.76.43l.11,37.31a1.67,1.67,0,0,1-.75,1.3L4.48,72.45c-.41.24-.76,0-.76-.43L3.62,34.71a1.67,1.67,0,0,1,.75-1.3Z"/><polygon class="cls-2" points="30.4 25 40.5 39.2 20.41 50.8 30.4 25"/></g></g></svg>